<svg t="1709629387785" class="icon" viewBox="0 0 1256 1024" version="1.1"
  xmlns="http://www.w3.org/2000/svg" p-id="13774" width="35" height="35">
  <path
    d="M201.681455 74.472727a111.709091 111.709091 0 0 0-111.709091 111.709091v651.636364a111.709091 111.709091 0 0 0 111.709091 111.709091h837.818181a111.709091 111.709091 0 0 0 111.709091-111.709091V186.181818a111.709091 111.709091 0 0 0-111.709091-111.709091h-837.818181z m0-74.472727h837.818181a186.181818 186.181818 0 0 1 186.181819 186.181818v651.636364a186.181818 186.181818 0 0 1-186.181819 186.181818h-837.818181a186.181818 186.181818 0 0 1-186.181819-186.181818V186.181818a186.181818 186.181818 0 0 1 186.181819-186.181818z m551.563636 234.589091c26.344727-7.447273 47.848727 7.912727 48.128 34.071273v322.280727c0 41.751273-41.984 80.663273-93.975273 87.04-51.944727 6.144-93.928727-20.200727-93.928727-61.905455 0-41.751273 41.984-80.663273 93.928727-87.04 35.374545-4.142545 55.063273 7.121455 55.063273 7.121455V352.349091c0-19.688727-21.504-12.567273-21.504-12.567273L547.374545 400.523636s-22.295273 7.912727-22.295272 26.391273v222.72c0 41.704727-37.888 80.104727-89.832728 87.505455-51.991273 7.447273-93.975273-18.152727-93.975272-59.857455 0-41.751273 41.984-81.454545 93.975272-88.855273 35.328-5.12 51.2 5.632 51.2 5.632V363.380364c0-26.391273 21.224727-53.992727 47.848728-61.719273l218.903272-67.025455z"
   p-id="13775"></path>
</svg>
