<svg t="1714447520031" class="icon" viewBox="0 0 1024 1024" version="1.1" xmlns="http://www.w3.org/2000/svg" p-id="5134" ><path d="M0 0h1024v1024H0z" fill-opacity="0" p-id="5135"></path><path d="M57.472 0.768c45.44-4.48 124.352 19.008 156.608 46.72 14.912 12.736 29.376 26.048 43.264 39.872C385.152 62.72 499.52 124.8 598.016 272c91.456 136.768 154.112 250.304 186.496 337.92 45.824 23.232 90.048 49.408 132.48 78.464 70.976 48.32 90.24 73.408 98.496 88.064a33.92 33.92 0 0 1-29.44 50.56h-116.48c17.28 19.84 34.944 39.296 52.992 58.56a33.92 33.92 0 1 1-49.28 46.4 3279.104 3279.104 0 0 1-103.552-116.864 33.92 33.92 0 0 1 25.728-55.808h104.64a1063.04 1063.04 0 0 0-157.504-94.464 33.92 33.92 0 0 1-17.408-19.52c-28.8-83.84-90.56-196.736-183.488-335.68-86.912-130.048-180.8-179.84-286.848-152.384a33.728 33.728 0 0 1-33.024-9.472 699.264 699.264 0 0 0-51.84-49.024C152.32 83.648 100.672 69.12 73.6 67.84c7.68 17.6 28.544 54.784 85.504 128.96 2.176 2.816 3.84 6.016 5.056 9.408 20.16 57.92 29.952 101.248 29.952 132.48 0 8.576 4.736 34.432 48.832 88.576 7.04 8.64 9.408 20.224 6.208 30.976l-38.72 132.48c-22.144 75.776 21.888 176.832 49.92 209.088 6.528-17.6 16.256-59.264 20.352-155.52a33.92 33.92 0 0 1 63.872-14.272c16.448 31.488 40.448 87.552 73.408 171.264 39.104 99.2 66.56 120 76.48 124.352a33.92 33.92 0 0 1-26.88 62.08c-40.192-17.408-75.968-68.736-112.576-161.6-6.72-17.28-13.184-33.28-19.2-48.256-11.904 63.552-30.272 85.76-52.992 94.72-11.328 4.48-34.304 8.128-61.568-16.768-51.072-46.72-105.984-180.48-75.776-284.032l33.856-115.84c-36.032-46.976-52.928-84.48-52.928-117.184 0-15.488-4.288-46.272-24.384-105.088C-3.648 95.104-11.328 52.608 11.584 23.04 21.504 10.432 36.928 2.88 57.472 0.832z m236.736 242.048c13.184-2.944 54.464-3.52 67.2 15.744 24.512 27.52 12.48 69.312-2.88 79.872l-2.112 2.112c-8.768-17.28-22.4-30.976-31.168-48.192a634.368 634.368 0 0 1-31.04-49.536z"  p-id="5136"></path></svg>
