<svg t="1713172372368" class="icon" viewBox="0 0 1024 1024" version="1.1"
  xmlns="http://www.w3.org/2000/svg" p-id="16101">
  <path
    d="M796.328175 136.632993C614.250511-45.444672 318.860146-45.444672 136.632993 136.632993c-182.227153 182.077664-182.077664 477.468029 0 659.545693C311.684672 971.230365 591.229197 978.106861 774.353285 816.658686L980.199708 1022.505109l42.305401-42.305401-205.696934-205.547445c161.448175-183.273577 154.571679-462.818102-20.48-638.01927z m46.939562 482.999124c-20.48 50.37781-50.527299 95.672993-89.394452 134.390657-38.867153 38.867153-84.012847 68.914453-134.390657 89.394452-48.733431 19.732555-100.157664 29.748321-153.076789 29.748321-52.919124 0-104.343358-10.015766-153.076788-29.748321-50.37781-20.48-95.672993-50.527299-134.390657-89.394452-38.717664-38.867153-68.914453-84.012847-89.394452-134.390657-19.732555-48.733431-29.748321-100.157664-29.748322-153.076789 0-52.919124 10.015766-104.343358 29.748322-153.076788 20.48-50.37781 50.527299-95.672993 89.394452-134.390657 38.867153-38.717664 84.012847-68.914453 134.390657-89.394452 48.733431-19.732555 100.157664-29.748321 153.076788-29.748322 52.919124 0 104.343358 10.015766 153.076789 29.748322 50.37781 20.48 95.672993 50.527299 134.390657 89.394452 38.867153 38.867153 68.914453 84.012847 89.394452 134.390657 19.732555 48.733431 29.748321 100.157664 29.748321 153.076788 0.149489 52.769635-10.015766 104.343358-29.748321 153.076789z m-141.71562-120.189197h-209.284672v209.284671h-59.79562v-209.284671h-209.284672v-59.795621h209.284672v-209.284671h59.79562v209.284671h209.284672v59.795621z m0 0"
    p-id="16102"></path>
</svg>
